<svg xmlns="http://www.w3.org/2000/svg" viewBox="0 0 64 64" role="img" aria-labelledby="favicon-title">
  <title id="favicon-title">Dabin Kim</title>
  <rect x="3" y="3" width="58" height="58" rx="13" fill="#2F615A"/>
  <path
    fill="#FAFBF9"
    transform="translate(14 49) scale(.052 -.052)"
    d="M38 0V53L164 60H177V0ZM136 0Q137 52 137 103.5Q137 155 137 208.5Q137 262 137 317V360Q137 412 137 463.5Q137 515 137 567Q137 619 136 670H240Q240 619 239.5 567.5Q239 516 239 464Q239 412 239 360V317Q239 263 239 209.5Q239 156 239.5 104Q240 52 240 0ZM199 0V55H325Q408 55 465 89Q522 123 551.5 186.5Q581 250 581 338Q581 473 516.5 544.5Q452 616 338 616H199V670H350Q452 670 529 633Q606 596 649 522.5Q692 449 692 340Q692 232 646.5 156Q601 80 520 40Q439 0 332 0ZM38 618V670H177V610H164Z"
  />
</svg>
