<svg xmlns="http://www.w3.org/2000/svg" width="153" height="205" viewBox="553.6 303.386 152.8 204.368" role="img" aria-label="Sogang University">
  <defs>
    <clipPath id="shield-inner">
      <path d="M693.563 425.949c-.883-3.453-1.969-6.996-3.11-10.746-4.059-13.289-9.414-28.364-9.414-50.254 0-12.684 2.606-22.813 5.785-37.555-3.558-3.781-13.242-13.742-16.336-17.035h-80.804c-3.094 3.293-12.782 13.254-16.336 17.035 3.179 14.742 5.785 24.871 5.785 37.555 0 21.89-5.356 36.965-9.414 50.254-1.145 3.75-2.227 7.293-3.11 10.746 0 0-5.082 19.453 8.621 36.957 9.801 12.918 27.18 22.879 41.102 30.113 5.609 2.902 10.129 4.395 13.723 6.739v.027h.008l.023-.012.02.012h.008v-.027c3.597-2.344 8.117-3.837 13.726-6.739 13.922-7.234 31.297-17.195 41.098-30.113 13.707-17.504 8.625-36.957 8.625-36.957z"/>
    </clipPath>
  </defs>
  <path fill="rgb(69.805908%,69.256592%,69.392395%)" d="M696.602 411.766c-18.325-46.836-1.227-85.536-1.227-85.536l-21.102-22.843H585.93l-21.102 22.843s17.098 38.7-1.226 85.536c-3.137 8.019-9.762 30.863 2.453 50.546 13.972 22.512 47.597 36.938 64.039 45.442l.008-.215.007.215c16.438-8.504 50.067-22.93 64.04-45.442 12.214-19.683 5.59-42.527 2.453-50.546z"/>
  <path fill="rgb(69.056702%,7.685852%,9.883118%)" d="M693.563 425.949c-.883-3.453-1.969-6.996-3.11-10.746-4.059-13.289-9.414-28.364-9.414-50.254 0-12.684 2.606-22.813 5.785-37.555-3.558-3.781-13.242-13.742-16.336-17.035h-80.804c-3.094 3.293-12.782 13.254-16.336 17.035 3.179 14.742 5.785 24.871 5.785 37.555 0 21.89-5.356 36.965-9.414 50.254-1.145 3.75-2.227 7.293-3.11 10.746 0 0-5.082 19.453 8.621 36.957 9.801 12.918 27.18 22.879 41.102 30.113 5.609 2.902 10.129 4.395 13.723 6.739v.027h.008l.023-.012.02.012h.008v-.027c3.597-2.344 8.117-3.837 13.726-6.739 13.922-7.234 31.297-17.195 41.098-30.113 13.707-17.504 8.625-36.957 8.625-36.957z"/>
  <path clip-path="url(#shield-inner)" fill="rgb(69.805908%,69.256592%,69.392395%)" d="m701.016 434.672-70.957-68.289-70.95 68.289c-2.027 10.43-1.632 21.41.618 29.34l70.332-65.817 70.34 65.817c2.25-7.93 2.644-18.91.617-29.34z"/>
  <path fill="rgb(69.805908%,69.256592%,69.392395%)" d="M589.754 330.137c0-1.547-.188-2.063-1.613-2.184v-.508h7.234V328c-1.45.129-1.629.637-1.629 2.188v19.421c0 1.551.133 2.059 1.574 2.184v.59h-7.18v-.551c1.426-.113 1.614-.629 1.614-2.176zm25.73 8.191v-8.09c0-1.55.133-2.058-1.207-2.191v-.602h6.735v.602c-1.485.133-1.645.64-1.645 2.191v19.356c0 1.554.16 2.062 1.617 2.199v.59h-7.09v-.551c1.477-.113 1.59-.629 1.59-2.176v-9.558h-9.586v9.558c0 1.547.063 2.063 1.434 2.176v.551h-6.965v-.504c1.434-.121 1.637-.637 1.637-2.18v-19.511c0-1.551-.149-2.059-1.653-2.192v-.551h6.719v.508c-1.301.129-1.172.637-1.172 2.184v8.191zm8.754 9.438c.371 1.023 2.918 3.648 6.91 3.648 2.676 0 4.27-1.793 4.27-4.422 0-2.57-1.813-4.211-4.625-5.625-2.973-1.469-6.703-3.64-6.703-7.469 0-3.734 3.054-6.941 8.422-6.941 2.156 0 3.87.5 5.054.844.153 1.484.25 2.293.438 3.437l-.668.117c-.41-1.16-1.77-2.933-5.52-2.933-2.422 0-3.851 1.816-3.851 3.984 0 2.285 1.78 3.68 4.59 5.051 3.343 1.59 6.859 3.68 6.859 7.934 0 4.344-3.676 7.496-9.004 7.496-1.277 0-2.617-.195-3.562-.457-1.028-.258-1.89-.574-2.621-.86-.344-1.097-.442-2.48-.649-3.644z"/>
  <path fill="rgb(69.805908%,69.256592%,69.392395%)" d="m648.746 442.777-1.797 5.29s1.903.257 3.715.753l-3.148 8.348s-6.122-1.016-12.047-1.313l.363-9.054s1.3-.012 3.078.175l.606-5.285a119.188 119.188 0 0 0-9.325-.37c-3.148 0-6.265.128-9.351.37l.605 5.285c1.778-.187 3.078-.175 3.078-.175l.364 9.054c-5.926.297-12.047 1.313-12.047 1.313l-3.14-8.375c1.874-.434 3.718-.715 3.718-.715l-1.809-5.297a116.705 116.705 0 0 0-19.375 4.738c7.914 10.774 15.543 25.754 15.543 25.754 24.227-4.785 44.809 0 44.809 0 3.644-7.715 12.383-21.789 15.535-25.765a116.728 116.728 0 0 0-19.375-4.735z"/>
</svg>
